# xmcd
#
# Track frame offsets:
#	150
#	16628
#	30105
#	40908
#	52053
#	65063
#	69120
#	73420
#	77898
#	81508
#	93198
#	104793
#	114438
#	130308
#	141195
#	153858
#	165665
#	177403
#
# Disc length: 2442 seconds
#
# Revision: 1
# Processed by: cddbd v1.5.2PL0 Copyright (c) Steve Scherf et al.
# Submitted via: audiograbber 1.83.01
#
DISCID=f4098812
DTITLE=CHARLEY PRIDE - GREAT COUNTRY SOUNDS OF
DYEAR=1993
DGENRE=Country
TTITLE0=Me and Bobby McGee
TTITLE1=(I'm so) Afraid of losing you again
TTITLE2=Oklahoma morning
TTITLE3=It's gonna take a little bit longer
TTITLE4=Crystal chandeliers
TTITLE5=Does my ring hurt your finger
TTITLE6=Too good to be true
TTITLE7=Wonder could I live there anymore
TTITLE8=Is anybody goin' to San Antone
TTITLE9=Shutters and boards
TTITLE10=My eyes can only see as far as you
TTITLE11=Kiss an angel good morning
TTITLE12=Let me live in the light of his love
TTITLE13=Mississippi cotten pickin' delta town
TTITLE14=Help me make it through the night
TTITLE15=Louisianna man
TTITLE16=There goes my everything
TTITLE17=Lovesick Blues
EXTD=
EXTT0=
EXTT1=
EXTT2=
EXTT3=
EXTT4=
EXTT5=
EXTT6=
EXTT7=
EXTT8=
EXTT9=
EXTT10=
EXTT11=
EXTT12=
EXTT13=
EXTT14=
EXTT15=
EXTT16=
EXTT17=
PLAYORDER=
